<?xml version="1.0" encoding="utf-8"?>
<!-- Generator: Adobe Illustrator 25.4.1, SVG Export Plug-In . SVG Version: 6.00 Build 0)  -->
<svg version="1.0" id="katman_1" xmlns="http://www.w3.org/2000/svg" xmlns:xlink="http://www.w3.org/1999/xlink" x="0px" y="0px"
	 viewBox="0 0 121.9 88.6" style="enable-background:new 0 0 121.9 88.6;" xml:space="preserve">
<style type="text/css">
	.st0{fill:url(#SVGID_1_);}
	.st1{fill:#FFFFFF;}
</style>
<symbol  id="intellij-idea-ce" viewBox="-29 -29 58 58">
	<linearGradient id="SVGID_1_" gradientUnits="userSpaceOnUse" x1="35.4842" y1="35.4838" x2="-46.4448" y2="-46.4442">
		<stop  offset="0.347" style="stop-color:#087CFA"/>
		<stop  offset="0.856" style="stop-color:#FE2857"/>
		<stop  offset="1" style="stop-color:#FE2857"/>
	</linearGradient>
	<path class="st0" d="M29-29h-58v58h58V-29z"/>
	<path d="M21-21h-42v42h42V-21z"/>
	<path class="st1" d="M-7.9-12.9v-2.9h-7.9v2.9h2.2v10h-2.2V0h7.9v-2.9h-2.2v-10H-7.9z"/>
	<path class="st1" d="M-0.3,0.2c-1.2,0-2.3-0.2-3.1-0.7c-0.8-0.5-1.5-1-2.1-1.7l2.2-2.4c0.4,0.5,0.9,0.9,1.4,1.2C-1.4-3.1-1-3-0.4-3
		c0.7,0,1.2-0.2,1.5-0.6c0.4-0.4,0.6-1.1,0.6-2v-10.1h3.5v10.3c0,0.9-0.1,1.8-0.4,2.5C4.6-2.3,4.2-1.7,3.8-1.2
		C3.3-0.7,2.7-0.4,2-0.1C1.3,0.1,0.5,0.2-0.3,0.2z"/>
	<path class="st1" d="M-0.6,13.6h-15.8v2.7h15.8V13.6z"/>
</symbol>
<use xlink:href="#intellij-idea-ce"  width="58" height="58" x="-29" y="-29" transform="matrix(1 0 0 1 60.9382 44.3111)" style="overflow:visible;"/>
</svg>
