<svg width="146" height="186" viewBox="0 0 146 186" fill="none" xmlns="http://www.w3.org/2000/svg">
<path d="M87.1445 87C87.1445 87.66 87.1445 88.32 87.1445 89C88.6277 89.1238 88.6277 89.1238 90.1408 89.25C97.2238 90.3101 102.527 93.5375 106.945 99.1523C108.731 101.963 109.392 104.764 110.117 108C110.373 108.608 110.629 109.217 110.893 109.844C114.964 119.611 114.491 131.363 110.928 141.187C108.891 145.811 106.797 149.523 103.125 153C102.466 153 101.807 153 101.128 153C101.128 153.99 101.128 154.98 101.128 156C96.9104 159 96.9104 159 94.136 159C94.136 159.66 94.136 160.32 94.136 161C79.4728 166.369 69.3266 168.157 54.1844 163C54.1844 162.34 54.1844 161.68 54.1844 161C53.5252 161 52.866 161 52.1868 161C52.552 157.252 53.141 155.069 55.1988 151.863C57.7282 147.547 57.7923 143.665 57.6801 138.75C57.6642 137.495 57.6642 137.495 57.648 136.214C57.3472 126.368 54.5362 117.174 47.3177 110.188C44.6503 108.695 42.2186 108.343 39.2025 108C40.5817 100.522 48.434 94.4929 54.1844 90C64.4626 84.5353 75.9663 85.2782 87.1445 87Z" fill="#9F009F"/>
<path d="M31.2122 18C31.8714 18.99 32.5306 19.98 33.2098 21C37.1473 26.4112 40.9635 29.552 47.1929 32C48.2229 32.4125 49.2529 32.825 50.3141 33.25C56.937 34.5334 64.6968 35.1583 71.1639 33C72.3811 30.4955 72.3811 30.4955 73.1614 28C73.8206 28 74.4798 28 75.159 28C79.4752 34.4821 79.3601 42.7752 79.4663 50.375C79.4838 51.0526 79.5014 51.7303 79.5195 52.4285C79.514 56.8468 78.7441 59.4456 76.1578 63C75.6982 63.6806 75.2385 64.3613 74.765 65.0625C69.412 72.3855 61.52 80.369 52.1868 82C44.5162 82.5282 38.2064 82.2953 31.2122 79C31.2122 78.34 31.2122 77.68 31.2122 77C30.2234 77 29.2346 77 28.2159 77C28.2159 76.34 28.2159 75.68 28.2159 75C27.6185 74.8969 27.021 74.7938 26.4055 74.6875C23.8988 73.8987 23.0519 72.8298 21.2243 71C19.9037 70.625 18.5717 70.2865 17.2292 70C14.1247 59.5024 11.0256 47.5072 15.2316 37C15.6526 35.8424 16.0736 34.6848 16.5074 33.4922C18.4455 29.5584 20.6323 27.0937 23.7837 24.125C24.2775 23.6403 24.7712 23.1556 25.28 22.6562C28.8725 19.1713 28.8725 19.1713 31.2122 18Z" fill="#FD9A00"/>
<path d="M114.112 37C122.783 38.0336 128.403 42.2091 134.4 48.375C136.463 51.5878 136.788 54.2276 137.084 58C136.054 58.0206 135.024 58.0413 133.963 58.0625C128.757 59.3234 126.952 61.6093 124.1 66C120.302 72.4427 119.382 78.5913 119.106 86C112.787 86.9038 107.446 86.9038 101.128 86C101.128 85.34 101.128 84.68 101.128 84C100.231 83.8144 100.231 83.8144 99.3172 83.625C97.1324 83 97.1324 83 94.136 81C94.136 80.34 94.136 79.68 94.136 79C93.1472 79 92.1584 79 91.1396 79C87.5643 75.6944 87.5054 71.7263 87.2693 67.125C87.2101 66.4302 87.1509 65.7354 87.0898 65.0195C86.714 58.7746 88.4275 55.2022 92.1891 50.3672C102.242 39.276 102.242 39.276 107.487 38.7734C109.714 38.7526 111.893 38.8223 114.112 39C114.112 38.34 114.112 37.68 114.112 37Z" fill="#019EFE"/>
<path d="M48.1916 110C53.8502 115.007 55.8454 121.989 58.1795 129C58.2601 130.481 58.287 131.966 58.2771 133.449C58.2738 134.297 58.2706 135.144 58.2673 136.018C58.2547 137.339 58.2547 137.339 58.2419 138.687C58.2374 139.58 58.2329 140.473 58.2283 141.393C58.2165 143.595 58.2001 145.798 58.1795 148C57.5641 148.112 56.9487 148.224 56.3146 148.34C53.8922 148.878 53.8922 148.878 52.0619 151.562C48.3776 154.69 46.1786 154.492 41.5044 154.371C39.2025 154 39.2025 154 36.2061 152C35.0525 151.752 33.8989 151.505 32.7104 151.25C29.2146 150 29.2146 150 27.4043 147.312C27.0129 146.219 26.6215 145.126 26.2182 144C25.8062 142.948 25.3942 141.896 24.9697 140.812C23.7284 134.495 23.9408 128.56 26.8425 122.75C39.1021 108.537 39.1021 108.537 48.1916 110Z" fill="#F7F7F7"/>
<path d="M59.1783 7C68.9457 9.28181 68.9457 9.28181 71.8505 13.375C74.2321 18.1439 74.7422 22.6734 74.1602 28C72.8493 31.4375 72.8493 31.4375 71.1638 34C60.7553 37.4737 50.358 34.5237 40.8958 29.8672C40.0576 29.4379 40.0576 29.4379 39.2025 29C38.5523 23.7917 38.6549 20.0802 41.8243 15.75C42.9166 14.4724 44.0398 13.2206 45.1953 12C45.6742 11.4689 46.1532 10.9378 46.6466 10.3906C50.4744 6.6425 54.104 6.24333 59.1783 7Z" fill="#F9F9F8"/>
<path d="M130.092 58C138.231 60.2549 138.231 60.2549 141.079 62.75C143.035 67.1564 143.55 70.5793 142.016 75.1875C139.647 78.6304 137.862 80.1804 134.088 82C129.068 82.709 124.663 82.3558 120.105 80C119.273 72.5049 121.665 67.9844 126.097 62C127.401 60.6392 128.726 59.2972 130.092 58Z" fill="#FBFCFD"/>
<path d="M104.124 155C104.151 156.458 104.17 157.917 104.186 159.375C104.198 160.187 104.21 160.999 104.221 161.836C104.124 164 104.124 164 103.125 166C102.136 166 101.148 166 100.129 166C100.129 166.66 100.129 167.32 100.129 168C98.7398 169.438 98.7398 169.438 96.8827 171C96.2801 171.516 95.6776 172.031 95.0568 172.562C91.3281 175.355 88.2884 176.316 83.6487 176.75C82.2428 176.897 82.2428 176.897 80.8084 177.047C77.997 176.997 76.5313 176.456 74.1602 175C74.1602 174.34 74.1602 173.68 74.1602 173C72.8418 173 71.5234 173 70.165 173C70.165 172.01 70.165 171.02 70.165 170C69.1762 169.67 68.1874 169.34 67.1687 169C68.9416 168.636 68.9416 168.636 70.7503 168.266C82.1709 165.867 92.3861 163.696 101.631 156.172C103.125 155 103.125 155 104.124 155Z" fill="#F3F3F3"/>
<path d="M104.124 154C104.783 154.33 105.442 154.66 106.121 155C105.81 162.604 104.822 168.952 99.5552 174.723C93.3761 180.381 87.223 182.626 78.8615 182.34C71.4378 181.407 67.2162 177.48 62.5219 171.902C61.1759 170 61.1759 170 60.1771 167C64.4619 167.33 68.7467 167.66 73.1614 168C72.1726 168.66 71.1838 169.32 70.165 170C70.165 170.99 70.165 171.98 70.165 173C71.4834 173 72.8018 173 74.1602 173C74.1602 173.66 74.1602 174.32 74.1602 175C76.6322 175.99 76.6322 175.99 79.1541 177C79.1541 177.66 79.1541 178.32 79.1541 179C88.5871 178.932 88.5871 178.932 96.6681 174.637C102.205 168.443 103.936 162.194 104.124 154Z" fill="#BABABA"/>
<path d="M94.136 41C94.7952 41.33 95.4544 41.66 96.1336 42C95.3031 42.8701 95.3031 42.8701 94.4559 43.7578C88.8145 49.8482 85.6691 54.1639 85.8842 62.7812C86.5564 68.4868 88.4715 73.936 91.1396 79C92.1284 79 93.1172 79 94.136 79C95.4887 80.312 96.8201 81.6463 98.1311 83C99.1199 83.33 100.109 83.66 101.128 84C101.128 84.66 101.128 85.32 101.128 86C107.06 86 112.993 86 119.106 86C119.6 85.01 119.6 85.01 120.105 84C121.093 84.66 122.082 85.32 123.101 86C123.101 86.66 123.101 87.32 123.101 88C115.758 91.2675 107.318 91.1092 99.8166 88.4375C92.0061 84.8601 87.193 78.9493 84.1481 71C82.0827 63.7901 83.0109 56.7474 86.1456 50C88.5791 46.7514 91.2462 43.8452 94.136 41Z" fill="#0661FC"/>
<path d="M108.119 102C114.149 109.589 116.39 118.386 116.109 128C114.769 139.643 110.796 149.297 102.193 157.391C98.2108 160.496 93.8403 163.142 89.1421 165C88.1533 164.67 87.1645 164.34 86.1457 164C88.708 161.435 90.6171 161.46 94.136 161C94.136 160.34 94.136 159.68 94.136 159C98.5153 156 98.5153 156 101.128 156C101.128 155.01 101.128 154.02 101.128 153C101.849 152.34 102.57 151.68 103.312 151C108.563 146.118 111.931 137.346 112.317 130.305C112.536 119.838 112.536 119.838 109.851 109.805C108.821 107.271 108.465 104.701 108.119 102Z" fill="#770B77"/>
<path d="M64.3596 5.83203C66.1699 7 66.1699 7 68.1675 10C67.4053 9.69063 66.6431 9.38125 65.8577 9.0625C59.555 6.56769 52.7826 5.59267 46.3189 8.125C44.492 9.73894 43.0497 11.3111 41.5122 13.1875C40.3689 14.5797 40.3689 14.5797 39.2025 16C38.5433 16 37.8841 16 37.2049 16C37.2049 18.97 37.2049 21.94 37.2049 25C35.8865 24.34 34.5681 23.68 33.2098 23C33.3207 17.8921 33.5666 14.0518 36.2686 9.625C44.9727 1.83744 53.8012 0.905134 64.3596 5.83203Z" fill="#CBCBCB"/>
<path d="M126.097 33C129.746 35.091 132.879 37.8862 134.088 42C134.165 44.332 134.177 46.6684 134.088 49C133.629 48.6017 133.171 48.2033 132.699 47.793C125.242 41.347 120.056 38.012 110.117 37C110.117 36.34 110.117 35.68 110.117 35C115.657 32.0496 119.977 31.1616 126.097 33Z" fill="#E3E3E6"/>
<path d="M114.112 37C114.112 37.66 114.112 38.32 114.112 39C113.532 39.0258 112.953 39.0516 112.356 39.0781C102.778 39.7744 98.3609 44.5581 92.0916 51.4648C88.438 56.213 87.8986 59.8733 88.0184 65.8125C88.0364 66.9739 88.0545 68.1354 88.073 69.332C88.0962 70.2124 88.1194 71.0929 88.1433 72C84.955 67.2117 84.586 62.7133 85.1469 57C87.3085 49.6956 92.1211 42.5466 98.5954 38.4375C104.14 35.9742 108.225 35.6901 114.112 37Z" fill="#0176FD"/>
<path d="M22.2231 22C21.8935 22.66 21.5639 23.32 21.2243 24C19.336 24.4922 19.336 24.4922 16.9795 24.875C12.8132 25.7119 10.3047 26.9328 7.24124 30C5.8424 32.8011 6.03515 35.1889 5.99275 38.3125C5.967 39.443 5.94125 40.5735 5.91472 41.7383C6.27036 45.2778 7.19699 47.1326 9.23882 50C9.56842 48.35 9.89802 46.7 10.2376 45C10.5672 45 10.8968 45 11.2364 45C11.566 49.62 11.8956 54.24 12.2352 59C7.36865 56.2316 4.23518 53.3964 2.24729 48C0.405242 40.1429 1.7 35.2139 5.8679 28.3125C10.1741 24.1146 16.0959 21.2084 22.2231 22Z" fill="#B3B2B2"/>
<path d="M40.7631 107.812C41.9393 107.791 41.9393 107.791 43.1392 107.77C45.1953 108 45.1953 108 47.1929 110C46.5336 110.062 45.8744 110.124 45.1953 110.187C37.2698 112.337 31.1978 117.85 27.1234 124.887C26.0788 127.326 25.5744 129.642 25.0946 132.25C24.9272 133.142 24.7599 134.034 24.5874 134.953C24.4664 135.629 24.3454 136.304 24.2207 137C23.8911 137 23.5615 137 23.2219 137C22.6802 124.586 22.6802 124.586 26.2182 119C26.5066 118.154 26.795 117.309 27.0922 116.437C28.5716 113.228 30.5719 111.319 33.2098 109C36.008 108.066 37.8586 107.836 40.7631 107.812Z" fill="#D7D7D7"/>
<path d="M28.2158 112C28.875 112.33 29.5342 112.66 30.2134 113C29.8156 113.508 29.4177 114.016 29.0078 114.539C23.0052 122.347 20.1021 127.946 21.2243 138C21.9894 140.567 22.9738 142.603 24.2207 145C24.5503 145.99 24.8799 146.98 25.2194 148C28.2243 149.225 28.2243 149.225 31.2122 150C31.2122 150.66 31.2122 151.32 31.2122 152C34.6601 153.965 38.0886 154.775 41.9492 155.625C43.1182 155.885 44.2873 156.146 45.4918 156.414C46.3827 156.607 47.2737 156.801 48.1916 157C48.1916 157.33 48.1916 157.66 48.1916 158C39.1452 158.599 33.3862 157.607 26.4679 151.625C20.2278 144.336 18.817 139.114 18.8756 129.66C19.505 123.099 22.2321 118.26 26.5304 113.375C27.0866 112.921 27.6428 112.467 28.2158 112Z" fill="#A8A7A8"/>
<path d="M132.09 57C135.266 57.0757 137.393 57.3677 139.78 59.5547C143.819 64.2744 145.53 67.3246 145.5 73.6055C144.767 77.7287 142.163 80.3144 139.082 83C136.284 84.4005 133.899 84.2075 130.779 84.25C129.65 84.2758 128.521 84.3016 127.357 84.3281C123.774 83.9672 121.906 83.246 119.106 81C118.794 77.8125 118.794 77.8125 119.106 75C119.435 75 119.765 75 120.105 75C120.105 76.65 120.105 78.3 120.105 80C126.146 81.561 131.858 82.0959 137.521 79.3125C140.275 76.8244 141.323 75.613 142.078 72C141.841 67.4989 141.454 64.1429 138.083 61C134.999 59.7199 134.999 59.7199 132.09 59C132.09 58.34 132.09 57.68 132.09 57Z" fill="#DCDFE1"/>
<path d="M18.2279 70C21.5625 70.5756 22.9133 71.5906 25.2194 74C26.2082 74.33 27.197 74.66 28.2158 75C28.2158 75.66 28.2158 76.32 28.2158 77C29.2046 77 30.1934 77 31.2122 77C31.2122 77.66 31.2122 78.32 31.2122 79C41.4634 81.3176 52.8598 82.2947 63.1735 80C56.3965 84.5234 49.2059 85.6593 41.1689 84.6016C32.8277 82.772 25.4835 79.4976 19.6012 73.1875C18.2279 71 18.2279 71 18.2279 70Z" fill="#FB5F0D"/>
<path d="M53.1856 157C52.856 158.32 52.5264 159.64 52.1868 161C52.846 161 53.5052 161 54.1844 161C54.1844 161.66 54.1844 162.32 54.1844 163C57.147 163.502 60.1102 163.998 63.0759 164.48C65.3223 164.858 67.56 165.288 69.7905 165.75C73.7519 166.044 76.9896 165.341 80.8201 164.375C83.2809 163.979 84.7998 164.223 87.1445 165C77.4907 169.142 65.0865 170.032 55.1558 166.066C51.5344 164.106 48.3377 161.649 45.1953 159C50.3319 155.571 50.3319 155.571 53.1856 157Z" fill="#660A66"/>
<path d="M61.1759 87C60.6661 87.2939 60.1562 87.5878 59.6309 87.8906C54.3963 91.1244 50.0305 94.8568 45.6947 99.1875C45.1671 99.7105 44.6396 100.234 44.096 100.772C41.7538 103.16 40.2735 104.783 39.2025 108C37.1425 108.687 37.1425 108.687 35.2074 109C36.0793 101.452 42.2272 96.3731 47.9068 91.832C56.7533 85.524 56.7533 85.524 61.1759 87Z" fill="#6B066B"/>
<path d="M33.2098 15C33.5394 15.66 33.869 16.32 34.2086 17C33.2722 19.125 33.2722 19.125 32.211 21C31.8814 20.34 31.5518 19.68 31.2122 19C21.9151 26.6266 21.9151 26.6266 16.2303 37C15.2316 40 15.2316 40 13.234 41C12.5748 41.99 11.9156 42.98 11.2364 44C12.1166 33.425 17.5133 26.1239 25.2195 19C27.8615 17.2948 30.2759 16.175 33.2098 15Z" fill="#F97313"/>
<path d="M26.2182 117C26.5478 117.66 26.8774 118.32 27.217 119C26.5372 120.176 26.5372 120.176 25.8437 121.375C23.5601 126.475 23.4812 131.467 23.2219 137C23.8811 137 24.5403 137 25.2195 137C26.2083 140.96 27.1971 144.92 28.2158 149C24.7141 147.831 24.1322 147.075 22.2231 144C19.7119 138.574 19.4012 132.866 20.2255 127C21.6815 123.408 23.4493 119.772 26.2182 117Z" fill="#C4C4C4"/>
<path d="M18.2279 25C16.5047 26.1068 14.7816 27.2135 13.0584 28.3203C10.5033 30.6758 9.44111 32.7315 8.24 36C8.34413 38.7897 8.56122 41.1659 9.05152 43.875C9.21471 44.9075 9.21471 44.9075 9.38119 45.9609C9.6496 47.6434 9.94123 49.3222 10.2376 51C8.30242 50.25 8.30242 50.25 6.24242 49C4.85344 45.7204 5.00878 42.0848 4.9315 38.5625C4.89417 37.45 4.85683 36.3376 4.81836 35.1914C5.33562 31.3096 6.52284 29.7632 9.23879 27C14.5202 23.7626 14.5202 23.7626 18.2279 25Z" fill="#DDDDDD"/>
<path d="M93.1372 88C96.3209 90.25 96.3209 90.25 98.1312 92C94.4366 91.1122 90.7946 90.0542 87.1445 89C87.1445 88.34 87.1445 87.68 87.1445 87C86.2793 87.2784 86.2793 87.2784 85.3966 87.5625C83.1493 88 83.1493 88 81.3624 87.543C73.1419 85.5217 64.9565 87.1064 57.1808 90C57.1808 89.34 57.1808 88.68 57.1808 88C58.4992 87.67 59.8176 87.34 61.1759 87C61.1759 86.34 61.1759 85.68 61.1759 85C71.1312 81.799 84.0296 83.1715 93.1372 88Z" fill="#780478"/>
<path d="M18.2279 24C18.8871 24.33 19.5463 24.66 20.2255 25C19.8392 25.4757 19.453 25.9513 19.055 26.4414C13.8647 33.4259 12.1047 40.6538 10.2376 49C9.90795 49 9.57835 49 9.23876 49C6.44779 37.0146 6.44779 37.0146 8.26728 32.3945C10.9476 28.7549 14.0058 25.7613 18.2279 24Z" fill="#F4F3F3"/>
<path d="M54.6838 5.8125C56.1206 5.79123 56.1206 5.79123 57.5865 5.76953C60.1771 6 60.1771 6 63.1735 8C62.401 7.91879 61.6285 7.83758 60.8326 7.75391C55.0718 7.40413 51.1362 7.29231 46.631 11.1875C42.7313 15.238 40.2982 18.0265 40.014 23.8125C40.0758 24.8644 40.1376 25.9163 40.2013 27C39.2125 27 38.2237 27 37.2049 27C35.9462 24.4795 36.2873 23.1458 36.6431 20.375C36.7448 19.5577 36.8465 18.7405 36.9513 17.8984C37.035 17.272 37.1187 16.6455 37.2049 16C37.8641 16 38.5233 16 39.2025 16C39.4291 15.4431 39.6557 14.8862 39.8892 14.3125C43.5287 7.89227 47.5617 5.86042 54.6838 5.8125Z" fill="#ECEDED"/>
<path d="M55.1832 147C55.8424 147.33 56.5016 147.66 57.1808 148C55.7284 153.453 55.7284 153.453 53.4782 155.711C50.4762 157.401 48.6575 157.177 45.2577 156.812C44.2393 156.716 43.2209 156.619 42.1716 156.52C37.6041 155.72 34.277 154.553 31.2122 151C37.7849 151.903 37.7849 151.903 40.6383 152.562C44.187 153.169 47.5893 153.061 51.188 153C51.4764 152.381 51.7648 151.762 52.062 151.125C53.1856 149 53.1856 149 55.1832 147Z" fill="#D0D1D0"/>
<path d="M100.129 166C100.788 166 101.447 166 102.126 166C100.039 172.096 96.9425 176.128 91.1396 179C88.0301 179.293 88.0301 179.293 84.8348 179.187C83.2338 179.147 83.2338 179.147 81.6004 179.105C80.3895 179.053 80.3895 179.053 79.1541 179C79.4837 178.01 79.8133 177.02 80.1529 176C80.7323 175.974 81.3117 175.948 81.9086 175.922C88.2826 175.459 92.2576 173.881 96.8827 169.25C98.1312 168 98.1312 168 100.129 168C100.129 167.34 100.129 166.68 100.129 166Z" fill="#DDDDDD"/>
<path d="M142.078 78C142.737 78.33 143.396 78.66 144.076 79C140.21 84.2777 136.809 87.2711 130.042 88.3164C126.363 88.5314 124.261 88.0978 121.103 86.1875C119.106 84 119.106 84 119.106 81C119.796 81.321 120.486 81.642 121.197 81.9727C126.363 83.8011 131.687 83.7126 137.084 83C139.588 81.5637 140.436 80.436 142.078 78Z" fill="#BCBDBD"/>
<path d="M77.1566 33C81.4208 37.2694 81.4655 43.5539 81.5263 49.3125C81.4391 55.591 80.9267 61.7573 77.1566 67C75.0185 67.7578 75.0185 67.7578 73.1614 68C73.577 65.5869 73.8288 64.3059 75.6584 62.6172C79.5129 58.4565 78.3074 49.8906 78.2568 44.5078C78.1003 40.6381 77.6515 36.8403 77.1566 33Z" fill="#FD7605"/>
<path d="M75.159 67C75.159 71.1801 72.9786 73.1756 70.165 76C64.7196 80.2668 59.1541 82.4228 52.1868 82C53.0578 81.5746 53.0578 81.5746 53.9464 81.1406C59.7039 78.2031 64.7703 74.7114 69.5252 70.332C71.3004 68.889 73.0859 67.952 75.159 67Z" fill="#FD7507"/>
<path d="M13.234 40C14.7763 44.6328 14.6262 49.3819 14.8531 54.2383C15.2119 57.8047 16.0222 60.6467 17.2291 64C17.354 66.875 17.354 66.875 17.2291 69C11.0682 62.4204 11.0154 55.3072 10.9711 46.7344C11.2369 43.9941 11.8315 42.3403 13.234 40Z" fill="#FB6006"/>
</svg>
