<svg width="117" height="111" viewBox="0 0 117 111" fill="none" xmlns="http://www.w3.org/2000/svg">
<path d="M88.2026 0C67.5321 0 60.1291 12.508 62.5818 29.2179C65.3728 49.933 57.6756 55.4451 42.0532 60.2716C25.7995 65.2931 15.0449 91.1179 36.7083 105.848C47.9719 113.631 64.3371 112.205 74.6712 102.938C87.49 91.442 85.7559 74.4165 92.8358 60.2716C99.8717 46.2153 114.488 45.4755 116.35 27.9C117.94 12.8941 102.053 0 88.2026 0Z" fill="url(#paint0_linear_1_5)"/>
<path fill-rule="evenodd" clip-rule="evenodd" d="M88.2026 0.360001C69.0076 0.360001 60.3209 11.3358 62.9386 29.1698C65.4993 48.1756 60.1988 55.0423 42.1595 60.6155C34.1841 63.0795 27.5041 70.668 25.513 79.4983C23.3078 89.2786 27.0392 98.8382 36.913 105.552C47.9599 113.185 64.1457 111.894 74.4308 102.67C81.0261 96.7555 83.5251 90.8934 86.983 76.9693C87.2102 76.0545 87.268 75.8221 87.3746 75.3954C89.1519 68.2873 90.4344 64.2651 92.5139 60.1104C94.7801 55.583 97.577 52.4855 102.579 48.2663C103.041 47.8765 104.702 46.4903 104.611 46.5667C112.195 40.2179 115.125 36.0494 115.992 27.8621C117.47 13.9156 102.837 0.360001 88.2026 0.360001Z" stroke="black" stroke-opacity="0.102" stroke-width="0.72"/>
<path d="M15.4476 3.64631C-11.3543 12.875 2.67799 53.1392 28.7011 47.3527C58.3618 40.7575 42.7073 -5.73994 15.4476 3.64631Z" fill="url(#paint1_linear_1_5)"/>
<path fill-rule="evenodd" clip-rule="evenodd" d="M15.5648 3.9867C3.4627 8.15378 -1.16357 19.4142 2.60733 31.0189C6.33866 42.5019 16.7984 49.6306 28.6229 47.0013C41.908 44.0473 47.1296 32.263 43.0767 19.6163C39.0527 7.06007 27.8231 -0.234162 15.5648 3.9867Z" stroke="black" stroke-opacity="0.102" stroke-width="0.72"/>
<defs>
<linearGradient id="paint0_linear_1_5" x1="10739.3" y1="-4114.47" x2="-2541.23" y2="11046.3" gradientUnits="userSpaceOnUse">
<stop stop-color="#E71A6E"/>
<stop offset="1" stop-color="#FFB313"/>
</linearGradient>
<linearGradient id="paint1_linear_1_5" x1="1162.26" y1="5748.33" x2="3522.96" y2="-333.026" gradientUnits="userSpaceOnUse">
<stop stop-color="#5CF4E7"/>
<stop offset="1" stop-color="#2F97E6"/>
</linearGradient>
</defs>
</svg>