<svg xmlns="http://www.w3.org/2000/svg" xmlns:xlink="http://www.w3.org/1999/xlink" width="520" height="150" viewBox="0 0 520 150"><defs><linearGradient id="a" x1="116.578%" x2="1.701%" y1="-37.104%" y2="121.118%"><stop offset="0%" stop-color="#E71A6E"/><stop offset="100%" stop-color="#FFB313"/></linearGradient><path id="b" d="M106.202588,23 C85.5321193,23 78.1290686,35.5080422 80.5818323,52.2178669 C83.3728527,72.932966 75.6756071,78.4450501 60.0531952,83.2715584 C43.7995151,88.2930957 33.0448702,114.117863 54.7083157,128.848259 C65.9719395,136.631233 82.3371475,135.205453 92.6711704,125.938394 C105.490012,114.441966 103.755947,97.4164903 110.835826,83.2715584 C117.871764,69.2152825 132.488277,68.4754805 134.35,50.9 C135.939794,35.8940974 120.053302,23 106.202588,23 Z"/><linearGradient id="c" x1="26.553%" x2="76.888%" y1="126.232%" y2="-8.728%"><stop offset="0%" stop-color="#5CF4E7"/><stop offset="100%" stop-color="#2F97E6"/></linearGradient><path id="d" d="M33.4476159,26.6463118 C6.64569578,35.874953 20.6779869,76.1392274 46.7011028,70.3526667 C76.3618043,63.7575269 60.7072897,17.2600534 33.4476159,26.6463118 Z"/></defs><g fill="none" fill-rule="evenodd"><path fill="#4D566A" d="M194.126687,89.9380491 L194.126687,117.012148 L179.694191,117.012148 L179.694191,90.3594358 L157.15,48.1154142 C158.343935,47.5535624 159.748544,47.0619495 161.363867,46.6405606 C162.979191,46.2191718 164.489146,46.0084805 165.893775,46.0084805 C168.422108,46.0084805 170.300772,46.4825358 171.529823,47.4306608 C172.758874,48.3787857 173.865003,49.8009517 174.848243,51.6972016 L187.173806,76.2429797 L199.499368,51.907895 C200.342146,50.2223395 201.465833,48.8177311 202.870462,47.6940275 C204.275092,46.5703239 206.241544,46.0084805 208.769877,46.0084805 C210.385201,46.0084805 211.789809,46.1489413 212.983744,46.4298672 C214.177679,46.7107931 215.441827,47.0970605 216.776225,47.5886808 L194.126687,89.9380491 Z M260.073713,91.8342894 C260.073713,95.3458632 259.634773,98.7169235 258.75688,101.947571 C257.878986,105.178219 256.439263,108.022551 254.437666,110.480653 C252.436069,112.938755 249.855101,114.905207 246.694684,116.380068 C243.534268,117.854929 239.70671,118.592348 235.211895,118.592348 C230.717081,118.592348 226.90708,117.872486 223.78178,116.432741 C220.656479,114.992996 218.110626,113.061659 216.144145,110.638673 C214.177664,108.215687 212.73794,105.40647 211.824931,102.210938 C210.911921,99.015406 210.455424,95.6619033 210.455424,92.1503295 C210.455424,88.5685242 210.982152,85.1799063 212.035624,81.9843742 C213.089096,78.788842 214.651723,75.9796251 216.723552,73.5566392 C218.79538,71.1336533 221.411463,69.2198743 224.57188,67.8152447 C227.732296,66.4106152 231.419393,65.708311 235.633282,65.708311 C240.057865,65.708311 243.83275,66.4106152 246.958051,67.8152447 C250.083352,69.2198743 252.611647,71.1160957 254.543012,73.5039659 C256.474378,75.891836 257.878986,78.6659377 258.75688,81.8263541 C259.634773,84.9867706 260.073713,88.3227156 260.073713,91.8342894 Z M245.641217,91.9396361 C245.641217,90.0433863 245.500756,88.1647225 245.219831,86.3035884 C244.938905,84.4424542 244.412176,82.8095969 243.63963,81.4049674 C242.867084,80.0003379 241.813628,78.8590935 240.47923,77.9812001 C239.144832,77.1033066 237.459301,76.6643665 235.422589,76.6643665 C233.385876,76.6643665 231.682788,77.1208642 230.313274,78.0338734 C228.94376,78.9468826 227.855189,80.1232422 227.047527,81.5629874 C226.239865,83.0027327 225.660464,84.63559 225.309307,86.4616084 C224.958149,88.2876268 224.782573,90.148733 224.782573,92.0449828 C224.782573,93.9412327 224.940592,95.8374541 225.256633,97.7337039 C225.572675,99.6299538 226.116961,101.333042 226.889507,102.843018 C227.662053,104.352995 228.733067,105.56447 230.102581,106.477479 C231.472095,107.390488 233.175182,107.846986 235.211895,107.846986 C237.31884,107.846986 239.057042,107.390488 240.426556,106.477479 C241.79607,105.56447 242.867084,104.352995 243.63963,102.843018 C244.412176,101.333042 244.938905,99.6299538 245.219831,97.7337039 C245.500756,95.8374541 245.641217,93.9061174 245.641217,91.9396361 Z M317.066271,117.012148 L307.479723,117.012148 C305.723936,117.012148 304.617807,116.538092 304.161302,115.589967 C303.704797,114.641842 303.476549,113.254792 303.476549,111.428773 C302.282613,113.044097 300.456622,114.536494 297.998521,115.906007 C295.540419,117.275521 292.204474,117.960268 287.990586,117.960268 C283.004151,117.960268 279.317054,116.977042 276.929183,115.010561 C274.541313,113.044079 272.996244,110.445554 272.293929,107.214906 C271.942772,105.599582 271.714523,103.843821 271.609176,101.947571 C271.503828,100.051322 271.451156,98.1902154 271.451156,96.364197 L271.451156,67.1831646 C271.591619,67.1129331 272.153462,67.0251451 273.136703,66.9197979 C274.119943,66.8144507 275.1734,66.7617779 276.297103,66.7617779 C277.420807,66.7617779 278.544494,66.8671235 279.668197,67.0778179 C280.791901,67.2885124 281.810242,67.6923373 282.723251,68.2893048 C283.63626,68.8862724 284.37368,69.7290375 284.935532,70.8176253 C285.497383,71.9062132 285.778305,73.3283793 285.778305,75.0841662 L285.778305,95.7321169 C285.778305,97.3474408 285.830978,98.8047221 285.936325,100.104004 C286.041672,101.403287 286.322594,102.526973 286.779099,103.475098 C287.235603,104.423223 287.973023,105.160643 288.991379,105.687379 C290.009735,106.214115 291.431902,106.477479 293.25792,106.477479 C295.856484,106.477479 298.0863,105.933193 299.947435,104.844605 C301.808569,103.756017 302.739122,102.404082 302.739122,100.788758 L302.739122,67.1831646 C302.879585,67.1129331 303.441428,67.0251451 304.424669,66.9197979 C305.407909,66.8144507 306.461366,66.7617779 307.585069,66.7617779 C308.708773,66.7617779 309.83246,66.8846811 310.956163,67.1304913 C312.079867,67.3763014 313.098208,67.8327992 314.011217,68.4999982 C314.924226,69.1671972 315.661646,70.0801927 316.223498,71.2390121 C316.78535,72.3978314 317.066271,73.8551127 317.066271,75.6108996 L317.066271,117.012148 Z M361.838613,89.4113156 L361.838613,78.6659535 L387.437858,78.6659535 L387.437858,110.26996 C386.805775,111.042506 385.822549,111.920386 384.488151,112.903627 C383.153753,113.886868 381.433108,114.817421 379.326163,115.695314 C377.219219,116.573208 374.726039,117.310627 371.846549,117.907595 C368.967058,118.504562 365.701343,118.803041 362.049307,118.803041 C356.360557,118.803041 351.42687,117.872488 347.248097,116.011354 C343.069324,114.15022 339.628034,111.58681 336.924122,108.321046 C334.22021,105.055282 332.218643,101.157494 330.919361,96.6275637 C329.620078,92.0976335 328.970447,87.1639463 328.970447,81.8263541 C328.970447,76.5589934 329.655193,71.6955367 331.024707,67.235838 C332.394221,62.7761392 334.483576,58.8959084 337.292835,55.595029 C340.102094,52.2941497 343.648731,49.7131816 347.932851,47.8520475 C352.216971,45.9909134 357.273561,45.0603603 363.102774,45.0603603 C365.912033,45.0603603 368.668577,45.3939548 371.372488,46.0611538 C374.0764,46.7283529 376.464235,47.5886755 378.536063,48.6421477 C380.607892,49.6956198 382.275864,50.8719794 383.540031,52.1712617 C384.804197,53.470544 385.436271,54.7873644 385.436271,56.1217625 C385.436271,57.3156976 384.927101,58.6500756 383.908744,60.1249366 C382.890388,61.5997976 381.678913,62.9341756 380.274284,64.1281107 C379.431506,63.3555645 378.465838,62.5479146 377.37725,61.7051369 C376.288662,60.8623592 375.059629,60.0898245 373.690116,59.3875098 C372.320602,58.685195 370.775532,58.105794 369.054861,57.6492894 C367.33419,57.1927848 365.420411,56.964536 363.313467,56.964536 C359.520967,56.964536 356.360598,57.6668402 353.832265,59.0714697 C351.303932,60.4760992 349.302365,62.3196478 347.827504,64.6021708 C346.352643,66.8846938 345.299187,69.500777 344.667103,72.450499 C344.03502,75.400221 343.718983,78.4552444 343.718983,81.6156608 C343.718983,84.9867716 344.052578,88.2173711 344.719777,91.307556 C345.386976,94.3977409 346.475547,97.1191698 347.985524,99.4719243 C349.495501,101.824679 351.532183,103.7209 354.095632,105.160645 C356.659081,106.600391 359.837007,107.320252 363.629507,107.320252 C365.455525,107.320252 367.000595,107.179792 368.264761,106.898866 C369.528928,106.61794 370.582384,106.301903 371.425162,105.950746 C372.338171,105.529357 373.145821,105.037744 373.848136,104.475892 L373.848136,89.4113156 L361.838613,89.4113156 Z M415.144037,117.644228 C414.863111,117.784691 414.231037,117.890036 413.247797,117.960268 C412.264556,118.030499 411.2111,118.065615 410.087396,118.065615 C407.348368,118.065615 405.118553,117.486214 403.397881,116.327394 C401.67721,115.168575 400.816888,112.833413 400.816888,109.32184 L400.816888,67.1831646 C400.95735,67.1129331 401.519194,67.0251451 402.502435,66.9197979 C403.485675,66.8144507 404.539132,66.7617779 405.662835,66.7617779 C406.786539,66.7617779 407.910226,66.8671235 409.033929,67.0778179 C410.157633,67.2885124 411.175974,67.6923373 412.088983,68.2893048 C413.001992,68.8862724 413.739412,69.7290375 414.301263,70.8176253 C414.863115,71.9062132 415.144037,73.3283793 415.144037,75.0841662 L415.144037,117.644228 Z M415.249384,50.3276947 C415.249384,52.5751019 414.494407,54.4010929 412.98443,55.8057224 C411.474453,57.2103519 409.66602,57.9126561 407.559076,57.9126561 C405.3819,57.9126561 403.555909,57.2103519 402.081048,55.8057224 C400.606187,54.4010929 399.868767,52.5751019 399.868767,50.3276947 C399.868767,48.0802874 400.606187,46.2367388 402.081048,44.7969936 C403.555909,43.3572483 405.3819,42.6373865 407.559076,42.6373865 C409.66602,42.6373865 411.474453,43.3572483 412.98443,44.7969936 C414.494407,46.2367388 415.249384,48.0802874 415.249384,50.3276947 Z M442.955562,117.644228 C442.604405,117.784691 441.937216,117.890036 440.953975,117.960268 C439.970735,118.030499 438.882163,118.065615 437.688228,118.065615 C436.494293,118.065615 435.353049,117.942711 434.264461,117.696901 C433.175873,117.451091 432.210205,116.994593 431.367427,116.327394 C430.524649,115.660195 429.85746,114.764757 429.36584,113.641054 C428.874219,112.51735 428.628413,111.077626 428.628413,109.32184 L428.628413,42.7427332 C428.768876,42.6725017 429.330719,42.5847137 430.31396,42.4793665 C431.297201,42.3740193 432.350657,42.3213464 433.474361,42.3213464 C434.598064,42.3213464 435.721751,42.4266921 436.845455,42.6373865 C437.969158,42.8480809 438.987499,43.2519059 439.900508,43.8488734 C440.813518,44.4458409 441.550937,45.288606 442.112789,46.3771939 C442.674641,47.4657818 442.955562,48.8879478 442.955562,50.6437347 L442.955562,117.644228 Z M481.301757,108.057679 C483.057543,108.057679 484.602613,107.864546 485.937011,107.478272 C487.271409,107.091999 488.465326,106.617944 489.518798,106.056092 C490.57227,105.49424 491.485266,104.879724 492.257812,104.212525 C493.030358,103.545326 493.732662,102.93081 494.364746,102.368958 C495.207523,103.42243 496.085404,104.774366 496.998413,106.424806 C497.911422,108.075245 498.36792,109.427181 498.36792,110.480653 C498.36792,112.025746 497.49004,113.430354 495.734253,114.694521 C494.259392,115.818224 492.170037,116.783892 489.466125,117.591554 C486.762213,118.399216 483.584286,118.803041 479.93225,118.803041 C476.63137,118.803041 473.383213,118.381659 470.187681,117.538881 C466.992149,116.696103 464.147817,115.221265 461.654599,113.11432 C459.161382,111.007376 457.142257,108.180601 455.597165,104.633912 C454.052072,101.087222 453.279538,96.610033 453.279538,91.2022093 C453.279538,86.7776263 453.964284,82.9676259 455.333798,79.7720937 C456.703312,76.5765616 458.529303,73.9253631 460.811826,71.8184189 C463.094349,69.7114746 465.675317,68.1664053 468.554807,67.1831646 C471.434298,66.199924 474.383976,65.708311 477.403929,65.708311 C481.336892,65.708311 484.672837,66.3228272 487.411864,67.551878 C490.150892,68.7809289 492.380708,70.4313438 494.101379,72.5031723 C495.82205,74.5750009 497.06864,76.9452776 497.841186,79.6140737 C498.613733,82.2828698 499,85.0920867 499,88.0418087 L499,89.5166623 C499,90.0785141 498.982442,90.6754727 498.947327,91.307556 C498.912211,91.9396393 498.877096,92.5541555 498.84198,93.151123 C498.806864,93.7480906 498.754191,94.2221459 498.68396,94.5733033 L467.712034,94.5733033 C467.99296,98.4360345 469.186877,101.649076 471.293821,104.212525 C473.400766,106.775974 476.736711,108.057679 481.301757,108.057679 Z M486.042357,86.6723018 C486.042357,83.3011909 485.392726,80.5622044 484.093444,78.4552602 C482.794161,76.3483159 480.459,75.2948595 477.087889,75.2948595 C474.138167,75.2948595 471.820563,76.2956431 470.135008,78.2972401 C468.449452,80.2988372 467.606687,83.0904965 467.606687,86.6723018 L486.042357,86.6723018 Z"/><use fill="url(#a)" xlink:href="#b"/><path stroke="#000000" stroke-opacity=".102" stroke-width=".72" d="M106.202588,23.36 C87.0075829,23.36 78.3208533,34.3357696 80.9386085,52.1697971 C83.4993329,71.1756275 78.1988028,78.0423038 60.1594605,83.6155173 C52.1840308,86.079508 45.504056,93.6680025 43.5130168,102.498271 C41.3077474,112.278651 45.0391667,121.838231 54.912966,128.552086 C65.9598542,136.185299 82.1456934,134.89359 92.4308116,125.670387 C99.0260822,119.755496 101.525044,113.893432 104.982952,99.9693385 C105.210141,99.0545043 105.267948,98.8220499 105.374625,98.3953923 C107.151874,91.2872506 108.43437,87.2651303 110.513904,83.1104187 C112.780115,78.5830198 115.576956,75.4854701 120.579089,71.2663182 C121.041299,70.876457 122.702081,69.4903083 122.610858,69.5666767 C130.194555,63.2179278 133.124743,59.0493911 133.992004,50.8620722 C135.469557,36.9156007 120.83739,23.36 106.202588,23.36 Z"/><g><use fill="url(#c)" xlink:href="#d"/><path stroke="#000000" stroke-opacity=".102" stroke-width=".72" d="M33.5648204,26.9866984 C21.4627287,31.1537828 16.836455,42.4141979 20.6073487,54.0189362 C24.3386868,65.5019441 34.798391,72.6305887 46.6229641,70.0012491 C59.908019,67.0472801 65.1296123,55.2630204 61.0766746,42.6163316 C57.0527159,30.0600682 45.8230897,22.7658379 33.5648204,26.9866984 Z"/></g></g></svg>